<svg width="54" height="46" viewBox="0 0 54 46" fill="none" xmlns="http://www.w3.org/2000/svg">
<g opacity="0.42">
<path d="M26.7115 35.8663H11.8161L8.77291 45.3901C8.7389 45.5637 8.642 45.7181 8.50124 45.8231C8.36047 45.9281 8.18601 45.976 8.01212 45.9574H0.484324C0.0438671 45.9574 -0.0762567 45.7143 0.0438677 45.228L12.9372 7.65961C13.0574 7.25434 13.1775 6.80855 13.3376 6.32222C13.4988 5.45366 13.5792 4.57173 13.5779 3.68798C13.5659 3.58648 13.5922 3.48414 13.6516 3.40147C13.711 3.3188 13.7991 3.26191 13.8982 3.24219H24.269C24.5893 3.24219 24.7495 3.36377 24.7895 3.5664L39.4047 45.309C39.5248 45.7548 39.4047 45.9574 39.0042 45.9574H30.6356C30.494 45.9712 30.3522 45.9341 30.2351 45.8526C30.1179 45.771 30.0329 45.6503 29.9949 45.5116L26.7115 35.8663ZM14.1385 27.6393H24.309C24.0688 26.7883 23.7484 25.7751 23.3881 24.7214C23.0277 23.6677 22.6673 22.4519 22.3069 21.2361C21.9466 20.0203 21.5461 18.764 21.1457 17.5076C20.7453 16.2513 20.3849 15.076 20.0646 13.9007C19.7443 12.7255 19.464 11.7123 19.1837 10.7396H19.1036C18.7438 12.506 18.2893 14.2512 17.7422 15.9676C17.1416 17.9129 16.541 19.9392 15.9003 21.9656C15.3397 24.0324 14.7391 25.9372 14.1385 27.6393Z" fill="#FF9A00"/>
<path d="M48.1337 10.1724C47.4764 10.1869 46.8229 10.069 46.211 9.82551C45.5992 9.582 45.0414 9.21774 44.57 8.75395C43.6526 7.73871 43.164 6.40055 43.2086 5.02549C43.1849 4.35551 43.3011 3.68801 43.5495 3.06652C43.7978 2.44504 44.1729 1.88352 44.6501 1.4186C45.6125 0.497892 46.8895 -0.0103778 48.2138 0.000160662C49.7754 0.000160662 50.9766 0.486482 51.8575 1.4186C52.7446 2.40127 53.2186 3.69503 53.1789 5.02549C53.2033 5.71021 53.0919 6.39294 52.8512 7.03334C52.6105 7.67373 52.2454 8.2588 51.7774 8.75395C51.3056 9.24036 50.7362 9.61867 50.1076 9.86337C49.4791 10.1081 48.8059 10.2134 48.1337 10.1724ZM43.649 45.3497V14.144C43.649 13.7387 43.8092 13.5766 44.1696 13.5766H52.0978C52.4582 13.5766 52.6183 13.7793 52.6183 14.144V45.3497C52.6183 45.7955 52.4582 45.9981 52.0978 45.9981H44.2497C44.1655 46.0051 44.0809 45.9928 44.0021 45.9621C43.9233 45.9314 43.8524 45.883 43.7946 45.8207C43.7369 45.7583 43.6938 45.6836 43.6686 45.602C43.6434 45.5205 43.6367 45.4342 43.649 45.3497Z" fill="#FF9A00"/>
</g>
</svg>
