<svg width="26" height="17" viewBox="0 0 26 17" fill="none" xmlns="http://www.w3.org/2000/svg">
<path fill-rule="evenodd" clip-rule="evenodd" d="M25.9971 8.35671C25.9971 8.60293 25.8993 8.83908 25.7252 9.01318C25.551 9.18729 25.3149 9.2851 25.0687 9.2851L3.17161 9.2851L9.01491 15.1265C9.18924 15.3009 9.28717 15.5373 9.28717 15.7839C9.28717 16.0304 9.18924 16.2668 9.01491 16.4412C8.84058 16.6155 8.60415 16.7134 8.35761 16.7134C8.11107 16.7134 7.87463 16.6155 7.70031 16.4412L0.273166 9.01401C0.186708 8.92777 0.118114 8.82532 0.0713116 8.71253C0.0245091 8.59974 0.000417339 8.47882 0.000417344 8.35671C0.000417349 8.23459 0.0245091 8.11368 0.0713116 8.00089C0.118114 7.8881 0.186708 7.78565 0.273166 7.69941L7.70031 0.272262C7.87464 0.0979351 8.11107 -7.8763e-07 8.35761 -7.71045e-07C8.60415 -7.5446e-07 8.84058 0.0979351 9.01491 0.272263C9.18924 0.44659 9.28717 0.683029 9.28717 0.929565C9.28717 1.1761 9.18924 1.41254 9.01491 1.58687L3.17161 7.42831L25.0687 7.42832C25.3149 7.42832 25.551 7.52613 25.7252 7.70024C25.8993 7.87434 25.9971 8.11048 25.9971 8.35671Z" fill="#001E36"/>
</svg>
