<svg width="19" height="19" viewBox="0 0 19 19" fill="none" xmlns="http://www.w3.org/2000/svg">
<path d="M17.2428 1.7573C18.3679 2.88251 19 4.40858 19 5.9998C19 7.59103 18.3679 9.1171 17.2428 10.2423L10.1728 17.3133C9.04125 18.4076 7.52505 19.0135 5.95099 19.0004C4.37693 18.9872 2.87104 18.3562 1.7579 17.2432C0.644767 16.1302 0.0135185 14.6244 0.000214611 13.0503C-0.0130893 11.4762 0.592617 9.95996 1.68678 8.8283L8.75678 1.7573C9.88216 0.632112 11.4084 0 12.9998 0C14.5912 0 16.1174 0.632112 17.2428 1.7573ZM11.5868 13.0703L5.92978 7.4133L3.10078 10.2433C2.72255 10.6132 2.42146 11.0545 2.21495 11.5416C2.00844 12.0287 1.9006 12.5519 1.89769 13.0809C1.89478 13.61 1.99684 14.1343 2.19798 14.6237C2.39911 15.113 2.69532 15.5576 3.06945 15.9316C3.44358 16.3057 3.8882 16.6018 4.37757 16.8029C4.86693 17.0039 5.39132 17.1059 5.92037 17.1029C6.44941 17.0999 6.97261 16.992 7.45965 16.7854C7.9467 16.5788 8.38793 16.2776 8.75778 15.8993L11.5868 13.0703ZM15.8288 3.1713C15.4573 2.79985 15.0164 2.50519 14.5311 2.30416C14.0457 2.10313 13.5256 1.99966 13.0003 1.99966C12.475 1.99966 11.9548 2.10313 11.4695 2.30416C10.9842 2.50519 10.5432 2.79985 10.1718 3.1713L7.34478 5.9993L13.0018 11.6563L15.8298 8.8283C16.2012 8.45687 16.4959 8.0159 16.6969 7.53059C16.898 7.04527 17.0014 6.52511 17.0014 5.9998C17.0014 5.4745 16.898 4.95434 16.6969 4.46902C16.4959 3.98371 16.2002 3.54274 15.8288 3.1713Z" fill="#001E36"/>
</svg>
