<svg width="117" height="134" viewBox="0 0 117 134" fill="none" xmlns="http://www.w3.org/2000/svg">
<path d="M36.0983 13.231C28.1729 15.4153 20.3014 17.7903 12.4905 20.3542C11.7772 20.5852 11.1432 21.0119 10.6607 21.5857C10.1781 22.1595 9.86641 22.8572 9.76106 23.5995C5.151 58.1916 15.8024 83.4305 28.5092 100.057C33.8891 107.166 40.304 113.43 47.5403 118.638C50.4195 120.669 52.9658 122.133 54.9713 123.074C55.9699 123.548 56.7854 123.864 57.4095 124.056C57.6824 124.151 57.9638 124.221 58.2499 124.264C58.5326 124.218 58.811 124.148 59.0821 124.056C59.7145 123.864 60.53 123.548 61.5286 123.074C63.5257 122.133 66.0804 120.66 68.9596 118.638C76.1957 113.43 82.6106 107.166 87.9907 100.057C100.697 83.4388 111.349 58.1916 106.739 23.5995C106.634 22.8569 106.323 22.1587 105.84 21.5847C105.358 21.0108 104.723 20.5843 104.009 20.3542C98.5921 18.5817 89.4469 15.6942 80.4015 13.2394C71.1648 10.7346 62.6686 8.87895 58.2499 8.87895C53.8396 8.87895 45.3351 10.7346 36.0983 13.2394V13.231ZM33.8848 4.65999C42.9136 2.20517 52.5081 0 58.2499 0C63.9917 0 73.5863 2.20517 82.615 4.65999C91.8518 7.15641 101.163 10.1105 106.639 11.8996C108.928 12.6556 110.958 14.0421 112.495 15.8997C114.031 17.7574 115.013 20.0108 115.326 22.4012C120.286 59.6562 108.778 87.2666 94.8142 105.532C88.893 113.346 81.8327 120.227 73.8692 125.945C71.1156 127.923 68.198 129.663 65.1484 131.145C62.8184 132.244 60.3136 133.143 58.2499 133.143C56.1862 133.143 53.6898 132.244 51.3515 131.145C48.3018 129.663 45.3842 127.923 42.6306 125.945C34.6673 120.226 27.607 113.346 21.6856 105.532C7.72231 87.2666 -3.7862 59.6562 1.17336 22.4012C1.48697 20.0108 2.46853 17.7574 4.00528 15.8997C5.54203 14.0421 7.57162 12.6556 9.86092 11.8996C17.8095 9.29343 25.8198 6.87952 33.8848 4.65999Z" fill="black"/>
<path d="M70.7321 54.0889C70.7334 56.6712 69.9338 59.1904 68.4434 61.2993C66.9531 63.4082 64.8453 65.0029 62.4107 65.8637L65.6144 82.4233C65.731 83.0256 65.7129 83.6462 65.5615 84.2407C65.4101 84.8352 65.1291 85.3888 64.7386 85.862C64.3481 86.3352 63.8579 86.7161 63.3029 86.9776C62.748 87.2391 62.1421 87.3746 61.5286 87.3745H54.9713C54.3585 87.3734 53.7536 87.237 53.1996 86.975C52.6457 86.7129 52.1565 86.3318 51.767 85.8588C51.3774 85.3858 51.0972 84.8326 50.9462 84.2387C50.7953 83.6448 50.7774 83.0249 50.8938 82.4233L54.0892 65.8637C51.932 65.101 50.0259 63.76 48.5793 61.9872C47.1326 60.2145 46.2011 58.0782 45.8864 55.8119C45.5718 53.5455 45.8861 51.2363 46.7951 49.1365C47.7042 47.0367 49.1728 45.2272 51.0407 43.9057C52.9086 42.5842 55.1038 41.8015 57.3864 41.6432C59.669 41.4849 61.9512 41.9571 63.9836 43.0081C66.016 44.0591 67.7204 45.6486 68.9106 47.6028C70.1008 49.557 70.7309 51.8008 70.7321 54.0889Z" fill="black"/>
</svg>
