<svg width="116" height="25" viewBox="0 0 116 25" fill="none" xmlns="http://www.w3.org/2000/svg">
<path d="M11.4 18H1.74V4H3.96V15.98H11.4V18ZM18.2322 16.36C19.1389 16.36 19.9055 16.0467 20.5322 15.42C21.1455 14.8067 21.4522 14.0267 21.4522 13.08C21.4522 12.1467 21.1455 11.3733 20.5322 10.76C19.9055 10.1333 19.1389 9.82 18.2322 9.82C17.3122 9.82 16.5389 10.1333 15.9122 10.76C15.2989 11.3733 14.9922 12.1467 14.9922 13.08C14.9922 14.0267 15.2989 14.8067 15.9122 15.42C16.5389 16.0467 17.3122 16.36 18.2322 16.36ZM18.2322 18.26C16.6589 18.26 15.3655 17.76 14.3522 16.76C13.3389 15.76 12.8322 14.5333 12.8322 13.08C12.8322 11.64 13.3389 10.42 14.3522 9.42C15.3655 8.42 16.6589 7.92 18.2322 7.92C19.7789 7.92 21.0655 8.42 22.0922 9.42C23.1055 10.42 23.6122 11.64 23.6122 13.08C23.6122 14.52 23.1055 15.7467 22.0922 16.76C21.0655 17.76 19.7789 18.26 18.2322 18.26ZM33.5531 9.46V8.18H35.7131V17.12C35.7131 18.7333 35.1731 19.9667 34.0931 20.82C33.0398 21.6733 31.7398 22.1 30.1931 22.1C28.6598 22.1 27.3798 21.8067 26.3531 21.22V19.24C27.4065 19.88 28.6065 20.2 29.9531 20.2C31.0465 20.2 31.9198 19.9467 32.5731 19.44C33.2265 18.9333 33.5531 18.1733 33.5531 17.16V16.42C32.7265 17.4467 31.5598 17.96 30.0531 17.96C28.6665 17.96 27.5265 17.4733 26.6331 16.5C25.7398 15.5267 25.2931 14.3333 25.2931 12.92C25.2931 11.5067 25.7398 10.3267 26.6331 9.38C27.5265 8.40667 28.6665 7.92 30.0531 7.92C31.5865 7.92 32.7531 8.43333 33.5531 9.46ZM30.6331 16.06C31.2598 16.06 31.8398 15.9067 32.3731 15.6C32.9065 15.28 33.2998 14.8733 33.5531 14.38V11.52C33.2998 11.0133 32.9065 10.6067 32.3731 10.3C31.8531 9.98 31.2731 9.82 30.6331 9.82C29.7265 9.82 28.9731 10.12 28.3731 10.72C27.7731 11.32 27.4731 12.06 27.4731 12.94C27.4731 13.82 27.7731 14.56 28.3731 15.16C28.9731 15.76 29.7265 16.06 30.6331 16.06ZM48.6228 16.36C49.5295 16.36 50.2961 16.0467 50.9228 15.42C51.5361 14.8067 51.8428 14.0267 51.8428 13.08C51.8428 12.1467 51.5361 11.3733 50.9228 10.76C50.2961 10.1333 49.5295 9.82 48.6228 9.82C47.7028 9.82 46.9295 10.1333 46.3028 10.76C45.6895 11.3733 45.3828 12.1467 45.3828 13.08C45.3828 14.0267 45.6895 14.8067 46.3028 15.42C46.9295 16.0467 47.7028 16.36 48.6228 16.36ZM48.6228 18.26C47.0495 18.26 45.7561 17.76 44.7428 16.76C43.7295 15.76 43.2228 14.5333 43.2228 13.08C43.2228 11.64 43.7295 10.42 44.7428 9.42C45.7561 8.42 47.0495 7.92 48.6228 7.92C50.1695 7.92 51.4561 8.42 52.4828 9.42C53.4961 10.42 54.0028 11.64 54.0028 13.08C54.0028 14.52 53.4961 15.7467 52.4828 16.76C51.4561 17.76 50.1695 18.26 48.6228 18.26ZM63.4438 14.64V8.18H65.6038V18H63.4438V16.7C62.4838 17.74 61.2838 18.26 59.8438 18.26C58.6838 18.26 57.7838 17.9 57.1438 17.18C56.5171 16.46 56.2038 15.46 56.2038 14.18V8.18H58.3638V13.7C58.3638 15.3933 59.1304 16.24 60.6638 16.24C61.1971 16.24 61.7238 16.0933 62.2438 15.8C62.7638 15.4933 63.1638 15.1067 63.4438 14.64ZM69.7084 15.32V10.08H67.6084V8.18H69.7084V5.32H71.8684V8.18H74.9684V10.08H71.8684V14.7C71.8684 15.2467 71.9951 15.6467 72.2484 15.9C72.5018 16.1533 72.8884 16.28 73.4084 16.28C73.9284 16.28 74.4218 16.16 74.8884 15.92V17.78C74.4218 18.1 73.6951 18.26 72.7084 18.26C71.7751 18.26 71.0418 18.0067 70.5084 17.5C69.9751 16.9933 69.7084 16.2667 69.7084 15.32Z" fill="#FF4646"/>
<path d="M98.5 14.5V12H109.75V8.25L116 13.25L109.75 18.25V14.5H98.5Z" fill="#FF4646"/>
<path d="M93.5 2H104.75C106.129 2 107.25 3.12125 107.25 4.5V9.5H104.75V4.5H93.5V22H104.75V17H107.25V22C107.25 23.3787 106.129 24.5 104.75 24.5H93.5C92.1213 24.5 91 23.3787 91 22V4.5C91 3.12125 92.1213 2 93.5 2Z" fill="#FF4646"/>
</svg>
