<svg width="16" height="18" viewBox="0 0 16 18" fill="none" xmlns="http://www.w3.org/2000/svg">
<g filter="url(#filter0_i)">
<path d="M15.9799 12.0025V1.00253C15.9792 0.852326 15.9447 0.704206 15.8789 0.569172C15.8131 0.434137 15.7178 0.315658 15.5999 0.222531C15.4837 0.128552 15.348 0.0618044 15.2026 0.0271937C15.0573 -0.00741689 14.906 -0.00901012 14.7599 0.022531L5.75992 2.02253C5.53774 2.07264 5.33932 2.19708 5.19749 2.37529C5.05565 2.55349 4.9789 2.77477 4.97992 3.00253V11.3425C4.29725 11.0202 3.52849 10.928 2.78896 11.0797C2.04942 11.2313 1.379 11.6186 0.87826 12.1836C0.377519 12.7485 0.0734621 13.4606 0.011702 14.213C-0.050058 14.9654 0.133809 15.7175 0.53572 16.3566C0.937631 16.9956 1.53592 17.4871 2.24082 17.7573C2.94572 18.0275 3.71924 18.0619 4.44532 17.8552C5.17141 17.6486 5.81092 17.2121 6.26791 16.6112C6.72489 16.0103 6.97473 15.2774 6.97992 14.5225C6.99027 14.3494 6.99027 14.1757 6.97992 14.0025V3.80253L13.9799 2.25253V9.34253C13.2969 9.02005 12.5276 8.92789 11.7877 9.07987C11.0478 9.23185 10.3772 9.61978 9.87658 10.1854C9.37595 10.751 9.07234 11.4638 9.01135 12.2167C8.95035 12.9695 9.13526 13.7219 9.53831 14.3607C9.94136 14.9996 10.5408 15.4904 11.2466 15.7595C11.9524 16.0286 12.7264 16.0615 13.4524 15.8531C14.1785 15.6448 14.8174 15.2066 15.2731 14.6042C15.7289 14.0018 15.9769 13.2679 15.9799 12.5125C15.9894 12.3427 15.9894 12.1724 15.9799 12.0025Z" fill="#001A2F"/>
</g>
<defs>
<filter id="filter0_i" x="0" y="0" width="16.987" height="18.9885" filterUnits="userSpaceOnUse" color-interpolation-filters="sRGB">
<feFlood flood-opacity="0" result="BackgroundImageFix"/>
<feBlend mode="normal" in="SourceGraphic" in2="BackgroundImageFix" result="shape"/>
<feColorMatrix in="SourceAlpha" type="matrix" values="0 0 0 0 0 0 0 0 0 0 0 0 0 0 0 0 0 0 127 0" result="hardAlpha"/>
<feOffset dx="1" dy="1"/>
<feGaussianBlur stdDeviation="0.5"/>
<feComposite in2="hardAlpha" operator="arithmetic" k2="-1" k3="1"/>
<feColorMatrix type="matrix" values="0 0 0 0 0 0 0 0 0 0 0 0 0 0 0 0 0 0 0.37 0"/>
<feBlend mode="normal" in2="shape" result="effect1_innerShadow"/>
</filter>
</defs>
</svg>
