<svg width="9" height="20" viewBox="0 0 9 20" fill="none" xmlns="http://www.w3.org/2000/svg">
<g filter="url(#filter0_i)">
<path d="M2.5 0C1.83696 0 1.20107 0.263392 0.732233 0.732233C0.263392 1.20107 0 1.83696 0 2.5V17.5C0 18.163 0.263392 18.7989 0.732233 19.2678C1.20107 19.7366 1.83696 20 2.5 20H5.83333C6.49638 20 7.13226 19.7366 7.6011 19.2678C8.06994 18.7989 8.33333 18.163 8.33333 17.5V2.5C8.33333 1.83696 8.06994 1.20107 7.6011 0.732233C7.13226 0.263392 6.49638 0 5.83333 0H2.5ZM2.5 1.66667H5.83333C6.05435 1.66667 6.26631 1.75446 6.42259 1.91074C6.57887 2.06702 6.66667 2.27899 6.66667 2.5V17.5C6.66667 17.721 6.57887 17.933 6.42259 18.0893C6.26631 18.2455 6.05435 18.3333 5.83333 18.3333H2.5C2.27899 18.3333 2.06702 18.2455 1.91074 18.0893C1.75446 17.933 1.66667 17.721 1.66667 17.5V2.5C1.66667 2.27899 1.75446 2.06702 1.91074 1.91074C2.06702 1.75446 2.27899 1.66667 2.5 1.66667Z" fill="white"/>
</g>
<defs>
<filter id="filter0_i" x="0" y="0" width="9.33333" height="21" filterUnits="userSpaceOnUse" color-interpolation-filters="sRGB">
<feFlood flood-opacity="0" result="BackgroundImageFix"/>
<feBlend mode="normal" in="SourceGraphic" in2="BackgroundImageFix" result="shape"/>
<feColorMatrix in="SourceAlpha" type="matrix" values="0 0 0 0 0 0 0 0 0 0 0 0 0 0 0 0 0 0 127 0" result="hardAlpha"/>
<feOffset dx="1" dy="1"/>
<feGaussianBlur stdDeviation="0.5"/>
<feComposite in2="hardAlpha" operator="arithmetic" k2="-1" k3="1"/>
<feColorMatrix type="matrix" values="0 0 0 0 0 0 0 0 0 0 0 0 0 0 0 0 0 0 0.33 0"/>
<feBlend mode="normal" in2="shape" result="effect1_innerShadow"/>
</filter>
</defs>
</svg>
