<svg width="60" height="75" viewBox="0 0 60 75" fill="none" xmlns="http://www.w3.org/2000/svg">
<g opacity="0.42" clip-path="url(#clip0)">
<path d="M52.4673 2.89599L56.1089 5.58495C57.7082 6.76584 58.0476 9.02078 56.8667 10.6201L25.8811 52.584L16.4506 45.6207L47.4362 3.65671C48.6171 2.05744 50.868 1.71511 52.4673 2.89599Z" fill="#8E8CC2"/>
<path d="M16.1294 46.0553L25.5599 53.0186C25.8016 53.1971 26.1408 53.1425 26.3163 52.9048L57.3018 10.9409C58.6582 9.10392 58.2672 6.50583 56.4302 5.14945L52.7885 2.46049C50.9516 1.10411 48.3535 1.4951 46.9971 3.33206L16.0116 45.296C15.8331 45.5377 15.8877 45.8768 16.1294 46.0553ZM25.7663 51.8203L17.21 45.5024L47.8713 3.97753C48.8707 2.62398 50.7895 2.33521 52.1431 3.33465L55.7848 6.02361C57.1383 7.02305 57.4271 8.94185 56.4276 10.2954L25.7663 51.8203Z" fill="#3B3066"/>
<path d="M25.8813 52.584L23.1597 56.27C22.7284 56.8541 21.909 56.9774 21.3249 56.5461L14.0053 51.1414C13.4212 50.7101 13.2979 49.8908 13.7292 49.3066L16.4508 45.6206L25.8813 52.584Z" fill="#FF526C"/>
<path d="M13.6841 51.576L21.0037 56.9807C21.8255 57.5875 22.988 57.4126 23.5948 56.5908L26.3164 52.9048C26.4949 52.6631 26.4403 52.324 26.2026 52.1485L16.7721 45.1851C16.5304 45.0067 16.1913 45.0613 16.0158 45.299L13.2941 48.9849C12.6833 49.8038 12.8582 50.9663 13.6841 51.576ZM25.121 52.6944L22.7236 55.9413C22.4707 56.2837 21.9905 56.3524 21.6521 56.1025L14.3325 50.6978C13.9901 50.445 13.9214 49.9648 14.1713 49.6264L16.5687 46.3795L25.121 52.6944Z" fill="#3B3066"/>
<path d="M14.616 51.5864L20.7151 56.0898L14.8067 67.5817L5.47598 70.3466L5.37621 60.6183L14.616 51.5864Z" fill="#FFC96B"/>
<path d="M5.15204 70.7855C5.28901 70.8866 5.46551 70.9174 5.63042 70.8711L14.9571 68.1032C15.101 68.0601 15.2155 67.9641 15.2846 67.8283L21.1929 56.3365C21.3143 56.0962 21.2461 55.8093 21.0326 55.6517L14.9376 51.1512C14.7241 50.9936 14.4228 51.0138 14.2359 51.1995L4.992 60.2284C4.8856 60.3304 4.82859 60.475 4.82568 60.6223L4.92545 70.3505C4.93376 70.5247 5.01508 70.6844 5.15204 70.7855ZM14.427 67.1266L6.0087 69.6253L5.91903 60.8445L14.6627 52.299L20.0205 56.2551L14.427 67.1266Z" fill="#3B3066"/>
<path d="M5.15198 70.785C5.39368 70.9635 5.7328 70.9089 5.9083 70.6712L12.1578 62.2075C12.3362 61.9658 12.2816 61.6267 12.0439 61.4512C11.8022 61.2727 11.4631 61.3274 11.2876 61.565L5.03816 70.0287C4.86266 70.2664 4.91027 70.6066 5.15198 70.785Z" fill="#3B3066"/>
<path d="M10.5776 63.4372C9.72107 62.8047 9.53941 61.5976 10.1719 60.741C10.8044 59.8845 12.0114 59.7028 12.868 60.3353C13.7246 60.9677 13.9062 62.1748 13.2738 63.0314C12.6413 63.888 11.4342 64.0696 10.5776 63.4372Z" fill="#3B3066"/>
<path d="M23.3295 46.1682C23.5712 46.3467 23.9103 46.2921 24.0858 46.0544L50.8892 9.7544C51.0677 9.5127 51.0131 9.17358 50.7754 8.99809C50.5337 8.81962 50.1946 8.87423 50.0191 9.11191L23.2157 45.4119C23.0372 45.6536 23.0878 45.9898 23.3295 46.1682Z" fill="white"/>
</g>
<defs>
<clipPath id="clip0">
<rect width="12.8094" height="83.261" fill="white" transform="matrix(-0.804463 -0.594003 -0.594003 0.804463 59.7617 7.60938)"/>
</clipPath>
</defs>
</svg>
