<svg width="65" height="91" viewBox="0 0 65 91" fill="none" xmlns="http://www.w3.org/2000/svg">
<g opacity="0.79" clip-path="url(#clip0)">
<path d="M54.3606 54.8574H45.1289L45.1289 13.35H54.3606L54.3606 54.8574Z" fill="#8E8CC2"/>
<path d="M54.3608 12.8647H45.1291C44.8859 12.8647 44.6914 13.0828 44.6914 13.3454L44.6914 54.8573C44.6914 55.1243 44.89 55.3379 45.1291 55.3379H54.3608C54.6039 55.3379 54.7985 55.1198 54.7985 54.8573L54.7985 13.3498C54.8025 13.0828 54.6039 12.8647 54.3608 12.8647ZM45.5708 13.8304H53.9231L53.9231 54.3766H45.5708L45.5708 13.8304Z" fill="#3B3066"/>
<path d="M51.5039 54.8574H47.9863L47.9863 13.35H51.5039L51.5039 54.8574Z" fill="#FFC96B"/>
<path d="M51.5041 12.8647H47.9865C47.7434 12.8647 47.5488 13.0828 47.5488 13.3454L47.5488 54.8573C47.5488 55.1243 47.7474 55.3379 47.9865 55.3379H51.5041C51.7473 55.3379 51.9418 55.1198 51.9418 54.8573L51.9418 13.3498C51.9458 13.0828 51.7473 12.8647 51.5041 12.8647ZM48.4282 13.8304H51.0664L51.0664 54.3766H48.4282L48.4282 13.8304Z" fill="#3B3066"/>
<path d="M54.3606 13.3496L49.7448 2.73131L45.1289 13.3496L54.3606 13.3496Z" fill="#FFC96B"/>
<path d="M49.745 2.24652C49.5748 2.24652 49.4208 2.35332 49.3479 2.52243L44.7361 13.1407C44.6713 13.292 44.6794 13.4656 44.7604 13.608C44.8415 13.7504 44.9793 13.835 45.1332 13.835L54.365 13.835C54.5149 13.835 54.6567 13.7504 54.7378 13.608C54.8188 13.47 54.8269 13.292 54.7621 13.1407L50.1422 2.52243C50.0693 2.35332 49.9153 2.24652 49.745 2.24652ZM45.8262 12.8648L49.745 3.84861L53.6639 12.8648L45.8262 12.8648Z" fill="#3B3066"/>
<path d="M51.2851 66.9268H48.2092C46.5112 66.9268 45.1333 65.4137 45.1333 63.549V59.2056H54.365V63.5446C54.361 65.4137 52.9831 66.9268 51.2851 66.9268Z" fill="#FF7885"/>
<path d="M54.3608 58.7203H45.1291C44.8859 58.7203 44.6914 58.9384 44.6914 59.201V63.5444C44.6914 65.6761 46.2678 67.4072 48.209 67.4072H51.2849C53.222 67.4072 54.8025 65.6761 54.8025 63.5444V59.201C54.8025 58.934 54.6039 58.7203 54.3608 58.7203ZM45.5708 59.6861H53.9231V63.5444C53.9231 65.1421 52.7398 66.4415 51.2849 66.4415H48.209C46.7542 66.4415 45.5708 65.1421 45.5708 63.5444V59.6861Z" fill="#3B3066"/>
<path d="M54.3606 59.2012H45.1289V54.8577H54.3606V59.2012Z" fill="#FFC96B"/>
<path d="M54.3608 54.3769H45.1291C44.89 54.3769 44.6914 54.5906 44.6914 54.8576V59.201C44.6914 59.468 44.89 59.6816 45.1291 59.6816H54.3608C54.6039 59.6816 54.7985 59.4636 54.7985 59.201V54.8576C54.8025 54.5906 54.6039 54.3769 54.3608 54.3769ZM45.5708 55.3427H53.9231V58.7204H45.5708V55.3427Z" fill="#3B3066"/>
<path d="M52.0543 8.04102L49.7444 2.73187L47.4385 8.04102H52.0543Z" fill="#3B3066"/>
<path d="M51.0656 61.1952C50.8225 61.1952 50.6279 61.4132 50.6279 61.6758V64.5106C50.6279 64.7776 50.8265 64.9912 51.0656 64.9912C51.3088 64.9912 51.5033 64.7731 51.5033 64.5106V61.6758C51.5033 61.4088 51.3088 61.1952 51.0656 61.1952Z" fill="white"/>
</g>
<g opacity="0.79" clip-path="url(#clip1)">
<path d="M28.254 64.7842L39.7871 64.7842L39.7871 4.87376L28.254 4.87376L28.254 64.7842Z" fill="#FFC96B"/>
<path d="M28.2541 4.49348L39.7872 4.49348C40.0153 4.49348 40.1978 4.66425 40.1978 4.86987L40.1978 64.7838C40.1978 64.9894 40.0115 65.1602 39.7872 65.1602L28.2541 65.1602C28.026 65.1602 27.8435 64.9894 27.8435 64.7838L27.8435 4.87335C27.8397 4.66425 28.026 4.49348 28.2541 4.49348ZM39.3729 5.24973L28.6646 5.24973L28.6646 64.4039L39.3729 64.4039L39.3729 5.24973Z" fill="#3B3066"/>
<path d="M28.2543 60.9084L33.3404 60.9084C33.5685 60.9084 33.751 61.0791 33.751 61.2848C33.751 61.4939 33.5647 61.6611 33.3404 61.6611L28.2543 61.6611C28.0262 61.6611 27.8438 61.4904 27.8438 61.2848C27.84 61.0757 28.0262 60.9084 28.2543 60.9084Z" fill="#3B3066"/>
<path d="M28.2544 59.0197L30.7975 59.0197C31.0255 59.0197 31.208 59.1905 31.208 59.3961C31.208 59.6052 31.0217 59.7725 30.7975 59.7725L28.2544 59.7725C28.0263 59.7725 27.8439 59.6017 27.8439 59.3961C27.8401 59.187 28.0263 59.0197 28.2544 59.0197Z" fill="#3B3066"/>
<path d="M28.2544 57.1271L30.7975 57.1271C31.0255 57.1271 31.208 57.2979 31.208 57.5035C31.208 57.7126 31.0217 57.8799 30.7975 57.8799L28.2544 57.8799C28.0263 57.8799 27.8439 57.7091 27.8439 57.5035C27.8401 57.2979 28.0263 57.1271 28.2544 57.1271Z" fill="#3B3066"/>
<path d="M28.2544 55.2385L30.7975 55.2385C31.0255 55.2385 31.208 55.4092 31.208 55.6148C31.208 55.8239 31.0217 55.9912 30.7975 55.9912L28.2544 55.9912C28.0263 55.9912 27.8439 55.8204 27.8439 55.6148C27.8401 55.4092 28.0263 55.2385 28.2544 55.2385Z" fill="#3B3066"/>
<path d="M28.2543 53.3498L33.3404 53.3498C33.5685 53.3498 33.751 53.5205 33.751 53.7262C33.751 53.9353 33.5647 54.1025 33.3404 54.1025L28.2543 54.1025C28.0262 54.1025 27.8438 53.9318 27.8438 53.7262C27.8399 53.5171 28.0262 53.3498 28.2543 53.3498Z" fill="#3B3066"/>
<path d="M28.2544 51.4572L30.7975 51.4572C31.0255 51.4572 31.208 51.628 31.208 51.8336C31.208 52.0427 31.0217 52.21 30.7975 52.21L28.2544 52.21C28.0263 52.21 27.8439 52.0392 27.8439 51.8336C27.8401 51.628 28.0263 51.4572 28.2544 51.4572Z" fill="#3B3066"/>
<path d="M28.2544 49.5685L30.7975 49.5685C31.0255 49.5685 31.208 49.7393 31.208 49.9449C31.208 50.154 31.0217 50.3213 30.7975 50.3213L28.2544 50.3213C28.0263 50.3213 27.8439 50.1505 27.8439 49.9449C27.8401 49.7393 28.0263 49.5685 28.2544 49.5685Z" fill="#3B3066"/>
<path d="M28.2544 47.6789L30.7975 47.6789C31.0255 47.6789 31.208 47.8496 31.208 48.0553C31.208 48.2609 31.0217 48.4316 30.7975 48.4316L28.2544 48.4316C28.0263 48.4316 27.8439 48.2609 27.8439 48.0553C27.8439 47.8496 28.0263 47.6789 28.2544 47.6789Z" fill="#3B3066"/>
<path d="M28.2543 45.7902L33.3404 45.7902C33.5685 45.7902 33.751 45.961 33.751 46.1666C33.751 46.3757 33.5647 46.543 33.3404 46.543L28.2543 46.543C28.0262 46.543 27.8438 46.3722 27.8438 46.1666C27.84 45.9575 28.0262 45.7902 28.2543 45.7902Z" fill="#3B3066"/>
<path d="M28.2544 43.8986L30.7975 43.8986C31.0255 43.8986 31.208 44.0694 31.208 44.275C31.208 44.4841 31.0217 44.6514 30.7975 44.6514L28.2544 44.6514C28.0263 44.6514 27.8439 44.4806 27.8439 44.275C27.8401 44.0694 28.0263 43.8986 28.2544 43.8986Z" fill="#3B3066"/>
<path d="M28.2544 42.009L30.7975 42.009C31.0255 42.009 31.208 42.1797 31.208 42.3853C31.208 42.5944 31.0217 42.7617 30.7975 42.7617L28.2544 42.7617C28.0263 42.7617 27.8439 42.591 27.8439 42.3853C27.8401 42.1762 28.0263 42.009 28.2544 42.009Z" fill="#3B3066"/>
<path d="M28.2544 40.1203L30.7975 40.1203C31.0255 40.1203 31.208 40.2911 31.208 40.4967C31.208 40.7058 31.0217 40.873 30.7975 40.873L28.2544 40.873C28.0263 40.873 27.8439 40.7023 27.8439 40.4967C27.8401 40.2876 28.0263 40.1203 28.2544 40.1203Z" fill="#3B3066"/>
<path d="M28.2543 38.2277L33.3404 38.2277C33.5685 38.2277 33.751 38.3985 33.751 38.6041C33.751 38.8132 33.5647 38.9805 33.3404 38.9805L28.2543 38.9805C28.0262 38.9805 27.8438 38.8097 27.8438 38.6041C27.84 38.3985 28.0262 38.2277 28.2543 38.2277Z" fill="#3B3066"/>
<path d="M28.2544 36.339L30.7975 36.339C31.0255 36.339 31.208 36.5098 31.208 36.7154C31.208 36.9245 31.0217 37.0918 30.7975 37.0918L28.2544 37.0918C28.0263 37.0918 27.8439 36.921 27.8439 36.7154C27.8401 36.5098 28.0263 36.339 28.2544 36.339Z" fill="#3B3066"/>
<path d="M28.2544 34.4504L30.7975 34.4504C31.0255 34.4504 31.208 34.6211 31.208 34.8267C31.208 35.0358 31.0217 35.2031 30.7975 35.2031L28.2544 35.2031C28.0263 35.2031 27.8439 35.0324 27.8439 34.8267C27.8401 34.6176 28.0263 34.4504 28.2544 34.4504Z" fill="#3B3066"/>
<path d="M28.2544 32.5578L30.7975 32.5578C31.0255 32.5578 31.208 32.7285 31.208 32.9342C31.208 33.1433 31.0217 33.3105 30.7975 33.3105L28.2544 33.3105C28.0263 33.3105 27.8439 33.1398 27.8439 32.9342C27.8401 32.7285 28.0263 32.5578 28.2544 32.5578Z" fill="#3B3066"/>
<path d="M28.2543 30.6691L33.3404 30.6691C33.5685 30.6691 33.751 30.8399 33.751 31.0455C33.751 31.2511 33.5647 31.4219 33.3404 31.4219L28.2543 31.4219C28.0262 31.4219 27.8438 31.2511 27.8438 31.0455C27.8438 30.8399 28.0262 30.6691 28.2543 30.6691Z" fill="#3B3066"/>
<path d="M28.2544 28.7804L30.7975 28.7804C31.0255 28.7804 31.208 28.9512 31.208 29.1568C31.208 29.3659 31.0217 29.5332 30.7975 29.5332L28.2544 29.5332C28.0263 29.5332 27.8439 29.3624 27.8439 29.1568C27.8401 28.9477 28.0263 28.7804 28.2544 28.7804Z" fill="#3B3066"/>
<path d="M28.2544 26.8918L30.7975 26.8918C31.0255 26.8918 31.208 27.0625 31.208 27.2682C31.208 27.4773 31.0217 27.6445 30.7975 27.6445L28.2544 27.6445C28.0263 27.6445 27.8439 27.4738 27.8439 27.2682C27.8401 27.0591 28.0263 26.8918 28.2544 26.8918Z" fill="#3B3066"/>
<path d="M28.2544 24.9992L30.7975 24.9992C31.0255 24.9992 31.208 25.17 31.208 25.3756C31.208 25.5847 31.0217 25.752 30.7975 25.752L28.2544 25.752C28.0263 25.752 27.8439 25.5812 27.8439 25.3756C27.8401 25.17 28.0263 24.9992 28.2544 24.9992Z" fill="#3B3066"/>
<path d="M28.2543 23.1105L33.3404 23.1105C33.5685 23.1105 33.751 23.2813 33.751 23.4869C33.751 23.696 33.5647 23.8633 33.3404 23.8633L28.2543 23.8633C28.0262 23.8633 27.8438 23.6925 27.8438 23.4869C27.84 23.2813 28.0262 23.1105 28.2543 23.1105Z" fill="#3B3066"/>
<path d="M28.2544 21.2209L30.7975 21.2209C31.0255 21.2209 31.208 21.3916 31.208 21.5973C31.208 21.8064 31.0217 21.9736 30.7975 21.9736L28.2544 21.9736C28.0263 21.9736 27.8439 21.8029 27.8439 21.5973C27.8401 21.3882 28.0263 21.2209 28.2544 21.2209Z" fill="#3B3066"/>
<path d="M28.2544 19.3293L30.7975 19.3293C31.0255 19.3293 31.208 19.5 31.208 19.7057C31.208 19.9148 31.0217 20.082 30.7975 20.082L28.2544 20.082C28.0263 20.082 27.8439 19.9113 27.8439 19.7057C27.8401 19.5 28.0263 19.3293 28.2544 19.3293Z" fill="#3B3066"/>
<path d="M28.2544 17.4396L30.7975 17.4396C31.0255 17.4396 31.208 17.6104 31.208 17.816C31.208 18.0251 31.0217 18.1924 30.7975 18.1924L28.2544 18.1924C28.0263 18.1924 27.8439 18.0216 27.8439 17.816C27.8401 17.6104 28.0263 17.4396 28.2544 17.4396Z" fill="#3B3066"/>
<path d="M28.2543 15.551L33.3404 15.551C33.5685 15.551 33.751 15.7217 33.751 15.9273C33.751 16.1364 33.5647 16.3037 33.3404 16.3037L28.2543 16.3037C28.0262 16.3037 27.8438 16.1329 27.8438 15.9273C27.84 15.7182 28.0262 15.551 28.2543 15.551Z" fill="#3B3066"/>
<path d="M28.2544 13.6623L30.7975 13.6623C31.0255 13.6623 31.208 13.833 31.208 14.0387C31.208 14.2443 31.0217 14.415 30.7975 14.415L28.2544 14.415C28.0263 14.415 27.8439 14.2443 27.8439 14.0387C27.8439 13.833 28.0263 13.6623 28.2544 13.6623Z" fill="#3B3066"/>
<path d="M28.2544 11.7697L30.7975 11.7697C31.0255 11.7697 31.208 11.9405 31.208 12.1461C31.208 12.3517 31.0217 12.5225 30.7975 12.5225L28.2544 12.5225C28.0263 12.5225 27.8439 12.3517 27.8439 12.1461C27.8439 11.9405 28.0263 11.7697 28.2544 11.7697Z" fill="#3B3066"/>
<path d="M28.2544 9.88103L30.7975 9.88103C31.0255 9.88103 31.208 10.0518 31.208 10.2574C31.208 10.4665 31.0217 10.6338 30.7975 10.6338L28.2544 10.6338C28.0263 10.6338 27.8439 10.463 27.8439 10.2574C27.8401 10.0483 28.0263 9.88103 28.2544 9.88103Z" fill="#3B3066"/>
<path d="M28.2543 7.99237L33.3404 7.99237C33.5685 7.99237 33.751 8.16313 33.751 8.36874C33.751 8.57435 33.5647 8.74512 33.3404 8.74512L28.2543 8.74512C28.0262 8.74512 27.8438 8.57435 27.8438 8.36874C27.8438 8.16313 28.0262 7.99237 28.2543 7.99237Z" fill="#3B3066"/>
<path d="M37.0084 8.03065C37.2365 8.03065 37.4189 8.20141 37.4189 8.40703L37.4189 61.2848C37.4189 61.4939 37.2327 61.6611 37.0084 61.6611C36.7803 61.6611 36.5979 61.4904 36.5979 61.2848L36.5979 8.40703C36.5979 8.20141 36.7803 8.03065 37.0084 8.03065Z" fill="white"/>
<path d="M4.87345 75.2959L-2.00655 75.2959L-2.00655 61.2959L4.35345 61.2959C5.62012 61.2959 6.62012 61.6026 7.35345 62.2159C8.10012 62.8292 8.47345 63.6692 8.47345 64.7359C8.47345 65.4292 8.30012 66.0292 7.95345 66.5359C7.60679 67.0426 7.16012 67.4026 6.61345 67.6159C7.49345 67.7759 8.20679 68.1892 8.75345 68.8559C9.31345 69.5226 9.59345 70.3559 9.59345 71.3559C9.59345 72.5426 9.16679 73.4959 8.31345 74.2159C7.47345 74.9359 6.32679 75.2959 4.87345 75.2959ZM0.193453 68.8759L0.193453 73.2759L4.47345 73.2759C5.32679 73.2759 5.99345 73.0826 6.47345 72.6959C6.96679 72.2959 7.21345 71.7426 7.21345 71.0359C7.21345 70.3426 6.97345 69.8092 6.49345 69.4359C6.01345 69.0626 5.34012 68.8759 4.47345 68.8759L0.193453 68.8759ZM0.193453 63.3159L0.193453 66.9359L3.97345 66.9359C4.70679 66.9359 5.27345 66.7826 5.67345 66.4759C6.08679 66.1559 6.29345 65.7026 6.29345 65.1159C6.29345 64.5292 6.08679 64.0826 5.67345 63.7759C5.27345 63.4692 4.70679 63.3159 3.97345 63.3159L0.193453 63.3159ZM14.3675 75.2959L12.2075 75.2959L12.2075 65.4759L14.3675 65.4759L14.3675 67.1759C14.7008 66.6026 15.2008 66.1359 15.8675 65.7759C16.5342 65.4026 17.2408 65.2159 17.9875 65.2159C18.0808 65.2159 18.1475 65.2226 18.1875 65.2359L18.1875 67.3959C17.9475 67.3692 17.7475 67.3559 17.5875 67.3559C16.8542 67.3559 16.1942 67.5426 15.6075 67.9159C15.0208 68.2892 14.6075 68.7426 14.3675 69.2759L14.3675 75.2959ZM19.4567 70.3759C19.4567 68.8959 19.9234 67.6692 20.8567 66.6959C21.8034 65.7092 23.0167 65.2159 24.4967 65.2159C25.5101 65.2159 26.3701 65.4826 27.0767 66.0159C28.4634 67.0026 29.1567 68.4826 29.1567 70.4559L29.1567 71.0159L21.6367 71.0159C21.7701 71.8426 22.1634 72.4892 22.8167 72.9559C23.4834 73.4226 24.3234 73.6559 25.3367 73.6559C26.4567 73.6559 27.5101 73.3626 28.4967 72.7759L28.4967 74.5959C27.5901 75.2359 26.3834 75.5559 24.8767 75.5559C23.3701 75.5559 22.0834 75.0759 21.0167 74.1159C19.9767 73.1559 19.4567 71.9092 19.4567 70.3759ZM21.6567 69.3759L26.9767 69.3759C26.9501 68.7626 26.7167 68.2226 26.2767 67.7559C25.8234 67.2759 25.1967 67.0359 24.3967 67.0359C23.6367 67.0359 23.0034 67.2626 22.4967 67.7159C22.0034 68.1559 21.7234 68.7092 21.6567 69.3759ZM40.822 73.6159C41.0354 73.6159 41.2287 73.5692 41.402 73.4759L41.402 75.1159C41.1087 75.3292 40.6887 75.4359 40.142 75.4359C39.022 75.4359 38.3354 74.9692 38.082 74.0359C37.1887 75.0492 35.982 75.5559 34.462 75.5559C33.4087 75.5559 32.5287 75.2626 31.822 74.6759C31.1287 74.1026 30.782 73.2959 30.782 72.2559C30.782 71.2159 31.162 70.4159 31.922 69.8559C32.6687 69.2826 33.602 68.9959 34.722 68.9959C35.9087 68.9959 36.9554 69.2492 37.862 69.7559V69.2159C37.862 67.7892 36.902 67.0759 34.982 67.0759C33.862 67.0759 32.8287 67.3692 31.882 67.9559L31.882 66.0559C32.8554 65.4959 34.0487 65.2159 35.462 65.2159C36.8487 65.2159 37.9487 65.5492 38.762 66.2159C39.5887 66.8692 40.002 67.7892 40.002 68.9759L40.002 72.6359C40.002 72.9426 40.0754 73.1826 40.222 73.3559C40.382 73.5292 40.582 73.6159 40.822 73.6159ZM37.862 72.5159L37.862 71.3159C37.0354 70.8492 36.162 70.6159 35.242 70.6159C34.522 70.6159 33.9554 70.7492 33.542 71.0159C33.142 71.2826 32.942 71.6559 32.942 72.1359C32.942 72.6426 33.1287 73.0292 33.502 73.2959C33.8887 73.5626 34.4087 73.6959 35.062 73.6959C35.5954 73.6959 36.1154 73.5892 36.622 73.3759C37.1287 73.1492 37.542 72.8626 37.862 72.5159ZM44.3603 72.6159L44.3603 67.3759L42.2603 67.3759L42.2603 65.4759L44.3603 65.4759L44.3603 62.6159L46.5203 62.6159L46.5203 65.4759L49.6203 65.4759L49.6203 67.3759L46.5203 67.3759L46.5203 71.9959C46.5203 72.5426 46.647 72.9426 46.9003 73.1959C47.1537 73.4492 47.5403 73.5759 48.0603 73.5759C48.5803 73.5759 49.0737 73.4559 49.5403 73.2159L49.5403 75.0759C49.0737 75.3959 48.347 75.5559 47.3603 75.5559C46.427 75.5559 45.6937 75.3026 45.1603 74.7959C44.627 74.2892 44.3603 73.5626 44.3603 72.6159ZM54.2113 68.8359L54.2113 75.2959L52.0513 75.2959L52.0513 61.2959L54.2113 61.2959L54.2113 66.7759C55.1713 65.7359 56.3713 65.2159 57.8113 65.2159C58.9713 65.2159 59.8646 65.5759 60.4913 66.2959C61.1313 67.0159 61.4513 68.0159 61.4513 69.2959L61.4513 75.2959L59.2913 75.2959L59.2913 69.7759C59.2913 68.8292 59.0646 68.1692 58.6113 67.7959C58.1579 67.4226 57.6179 67.2359 56.9913 67.2359C56.4579 67.2359 55.9313 67.3892 55.4113 67.6959C54.8913 67.9892 54.4913 68.3692 54.2113 68.8359Z" fill="black"/>
</g>
<g opacity="0.79" clip-path="url(#clip2)">
<path d="M13.133 59.1562H16.7063C18.2756 59.1562 19.5483 58.0031 19.5483 56.5814L19.5483 19.277H10.295L10.295 56.5814C10.295 58.0031 11.5638 59.1562 13.133 59.1562Z" fill="#8E8CC2"/>
<path d="M10.2948 18.8901H19.5482C19.7854 18.8901 19.9751 19.0656 19.9751 19.2769L19.9751 56.5814C19.9751 58.2144 18.5086 59.543 16.7062 59.543H13.1329C11.3305 59.543 9.86399 58.2144 9.86399 56.5814L9.86399 19.2769C9.86399 19.062 10.0577 18.8901 10.2948 18.8901ZM19.1174 19.6673H10.7217L10.7217 56.5814C10.7217 57.7846 11.8048 58.7659 13.1329 58.7659H16.7062C18.0343 58.7659 19.1174 57.7846 19.1174 56.5814L19.1174 19.6673Z" fill="#3B3066"/>
<path d="M19.5483 19.2773V16.0006C19.5483 15.4814 19.0859 15.0624 18.5127 15.0624H11.3306C10.7574 15.0624 10.295 15.4814 10.295 16.0006V19.2773H19.5483Z" fill="#FF526C"/>
<path d="M11.3305 14.6756L18.5126 14.6756C19.3189 14.6756 19.9751 15.27 19.9751 16.0006V19.2773C19.9751 19.4922 19.7814 19.6641 19.5482 19.6641H10.2948C10.0577 19.6641 9.86794 19.4886 9.86794 19.2773V16.0006C9.86399 15.27 10.5201 14.6756 11.3305 14.6756ZM19.1174 18.8905V16.0042C19.1174 15.6998 18.8446 15.4563 18.5126 15.4563L11.3305 15.4563C10.9945 15.4563 10.7257 15.7033 10.7257 16.0042V18.8905H19.1174Z" fill="#3B3066"/>
<path d="M11.927 15.0654L17.9114 15.0654L19.5479 5.94433L14.9192 0.390022L10.2945 5.94433L11.927 15.0654Z" fill="#FFC96B"/>
<path d="M14.9193 -0.000358582C15.0537 -0.000358582 15.1802 0.056942 15.2632 0.153632L19.8879 5.70794C19.959 5.79389 19.9867 5.89774 19.9669 6.00517L18.3305 15.1263C18.2949 15.3161 18.117 15.4521 17.9076 15.4521L11.9271 15.4521C11.7176 15.4521 11.5357 15.3125 11.5041 15.1263L9.86768 6.00517C9.84792 5.90132 9.87954 5.79389 9.94673 5.70794L14.5714 0.153632C14.6584 0.056942 14.7849 -0.000358582 14.9193 -0.000358582ZM19.0934 6.04456L14.9193 1.031L10.7452 6.04456L12.2907 14.675L17.5479 14.675L19.0934 6.04456Z" fill="#3B3066"/>
<path d="M14.9198 -0.000572205C15.1569 -0.000572205 15.3467 0.174904 15.3467 0.386189L15.3467 7.91012C15.3467 8.12499 15.153 8.29688 14.9198 8.29688C14.6826 8.29688 14.4929 8.12141 14.4929 7.91012L14.4929 0.386189C14.4929 0.174904 14.6826 -0.000572205 14.9198 -0.000572205Z" fill="#3B3066"/>
<path d="M14.9196 6.5316C14.0791 6.5316 13.3978 7.14889 13.3978 7.91034C13.3978 8.67179 14.0791 9.28906 14.9196 9.28906C15.7601 9.28906 16.4414 8.67179 16.4414 7.91034C16.4414 7.14889 15.7601 6.5316 14.9196 6.5316Z" fill="#3B3066"/>
<path d="M14.9198 21.8838C15.1569 21.8838 15.3467 22.0593 15.3467 22.2706L15.3467 54.54C15.3467 54.7549 15.153 54.9268 14.9198 54.9268C14.6826 54.9268 14.4929 54.7513 14.4929 54.54L14.4929 22.2706C14.4929 22.0557 14.6826 21.8838 14.9198 21.8838Z" fill="white"/>
</g>
<path d="M6 46H59V78.625C59 85.4595 53.3257 91 46.3261 91H16.3696C10.6426 91 6 86.4669 6 80.875V46Z" fill="#454545"/>
<path d="M6 59H47C48.1046 59 49 59.8954 49 61V72C49 73.1046 48.1046 74 47 74H6V59Z" fill="#88C4E6"/>
<g filter="url(#filter0_d)">
<rect x="2" y="31.457" width="60.6667" height="14.6049" rx="2" fill="#88C4E6"/>
</g>
<path d="M2.5 38.3213H2V39.3213H2.5V38.3213ZM43.0681 39.3213C43.3442 39.3213 43.5681 39.0974 43.5681 38.8213C43.5681 38.5451 43.3442 38.3213 43.0681 38.3213V39.3213ZM2.5 39.3213H43.0681V38.3213H2.5V39.3213Z" fill="black"/>
<path d="M15.1826 69H12.4306V63.4H14.9746C15.4813 63.4 15.8813 63.5227 16.1746 63.768C16.4733 64.0133 16.6226 64.3493 16.6226 64.776C16.6226 65.0533 16.5533 65.2933 16.4146 65.496C16.2759 65.6987 16.0973 65.8427 15.8786 65.928C16.2306 65.992 16.5159 66.1573 16.7346 66.424C16.9586 66.6907 17.0706 67.024 17.0706 67.424C17.0706 67.8987 16.9 68.28 16.5586 68.568C16.2226 68.856 15.7639 69 15.1826 69ZM13.3106 66.432V68.192H15.0226C15.3639 68.192 15.6306 68.1147 15.8226 67.96C16.0199 67.8 16.1186 67.5787 16.1186 67.296C16.1186 67.0187 16.0226 66.8053 15.8306 66.656C15.6386 66.5067 15.3693 66.432 15.0226 66.432H13.3106ZM13.3106 64.208V65.656H14.8226C15.1159 65.656 15.3426 65.5947 15.5026 65.472C15.6679 65.344 15.7506 65.1627 15.7506 64.928C15.7506 64.6933 15.6679 64.5147 15.5026 64.392C15.3426 64.2693 15.1159 64.208 14.8226 64.208H13.3106ZM18.9802 69H18.1162V65.072H18.9802V65.752C19.1136 65.5227 19.3136 65.336 19.5802 65.192C19.8469 65.0427 20.1296 64.968 20.4282 64.968C20.4656 64.968 20.4922 64.9707 20.5082 64.976V65.84C20.4122 65.8293 20.3322 65.824 20.2682 65.824C19.9749 65.824 19.7109 65.8987 19.4762 66.048C19.2416 66.1973 19.0762 66.3787 18.9802 66.592V69ZM21.0159 67.032C21.0159 66.44 21.2026 65.9493 21.5759 65.56C21.9546 65.1653 22.4399 64.968 23.0319 64.968C23.4373 64.968 23.7813 65.0747 24.0639 65.288C24.6186 65.6827 24.8959 66.2747 24.8959 67.064V67.288H21.8879C21.9413 67.6187 22.0986 67.8773 22.3599 68.064C22.6266 68.2507 22.9626 68.344 23.3679 68.344C23.8159 68.344 24.2373 68.2267 24.6319 67.992V68.72C24.2693 68.976 23.7866 69.104 23.1839 69.104C22.5813 69.104 22.0666 68.912 21.6399 68.528C21.2239 68.144 21.0159 67.6453 21.0159 67.032ZM21.8959 66.632H24.0239C24.0133 66.3867 23.9199 66.1707 23.7439 65.984C23.5626 65.792 23.3119 65.696 22.9919 65.696C22.6879 65.696 22.4346 65.7867 22.2319 65.968C22.0346 66.144 21.9226 66.3653 21.8959 66.632ZM29.5621 68.328C29.6474 68.328 29.7247 68.3093 29.7941 68.272V68.928C29.6767 69.0133 29.5087 69.056 29.2901 69.056C28.8421 69.056 28.5674 68.8693 28.4661 68.496C28.1087 68.9013 27.6261 69.104 27.0181 69.104C26.5967 69.104 26.2447 68.9867 25.9621 68.752C25.6847 68.5227 25.5461 68.2 25.5461 67.784C25.5461 67.368 25.6981 67.048 26.0021 66.824C26.3007 66.5947 26.6741 66.48 27.1221 66.48C27.5967 66.48 28.0154 66.5813 28.3781 66.784V66.568C28.3781 65.9973 27.9941 65.712 27.2261 65.712C26.7781 65.712 26.3647 65.8293 25.9861 66.064V65.304C26.3754 65.08 26.8527 64.968 27.4181 64.968C27.9727 64.968 28.4127 65.1013 28.7381 65.368C29.0687 65.6293 29.2341 65.9973 29.2341 66.472V67.936C29.2341 68.0587 29.2634 68.1547 29.3221 68.224C29.3861 68.2933 29.4661 68.328 29.5621 68.328ZM28.3781 67.888V67.408C28.0474 67.2213 27.6981 67.128 27.3301 67.128C27.0421 67.128 26.8154 67.1813 26.6501 67.288C26.4901 67.3947 26.4101 67.544 26.4101 67.736C26.4101 67.9387 26.4847 68.0933 26.6341 68.2C26.7887 68.3067 26.9967 68.36 27.2581 68.36C27.4714 68.36 27.6794 68.3173 27.8821 68.232C28.0847 68.1413 28.2501 68.0267 28.3781 67.888ZM30.9774 67.928V65.832H30.1374V65.072H30.9774V63.928H31.8414V65.072H33.0814V65.832H31.8414V67.68C31.8414 67.8987 31.892 68.0587 31.9934 68.16C32.0947 68.2613 32.2494 68.312 32.4574 68.312C32.6654 68.312 32.8627 68.264 33.0494 68.168V68.912C32.8627 69.04 32.572 69.104 32.1774 69.104C31.804 69.104 31.5107 69.0027 31.2974 68.8C31.084 68.5973 30.9774 68.3067 30.9774 67.928ZM34.9177 66.416V69H34.0537V63.4H34.9177V65.592C35.3017 65.176 35.7817 64.968 36.3577 64.968C36.8217 64.968 37.1791 65.112 37.4297 65.4C37.6857 65.688 37.8137 66.088 37.8137 66.6V69H36.9497V66.792C36.9497 66.4133 36.8591 66.1493 36.6777 66C36.4964 65.8507 36.2804 65.776 36.0297 65.776C35.8164 65.776 35.6057 65.8373 35.3977 65.96C35.1897 66.0773 35.0297 66.2293 34.9177 66.416Z" fill="black"/>
<defs>
<filter id="filter0_d" x="0" y="31.457" width="64.6667" height="18.6049" filterUnits="userSpaceOnUse" color-interpolation-filters="sRGB">
<feFlood flood-opacity="0" result="BackgroundImageFix"/>
<feColorMatrix in="SourceAlpha" type="matrix" values="0 0 0 0 0 0 0 0 0 0 0 0 0 0 0 0 0 0 127 0"/>
<feOffset dy="2"/>
<feGaussianBlur stdDeviation="1"/>
<feColorMatrix type="matrix" values="0 0 0 0 0 0 0 0 0 0 0 0 0 0 0 0 0 0 0.11 0"/>
<feBlend mode="normal" in2="BackgroundImageFix" result="effect1_dropShadow"/>
<feBlend mode="normal" in="SourceGraphic" in2="effect1_dropShadow" result="shape"/>
</filter>
<clipPath id="clip0">
<rect width="10.1111" height="65.1605" fill="white" transform="matrix(1 0 0 -1 44.6914 67.4072)"/>
</clipPath>
<clipPath id="clip1">
<rect width="12.358" height="60.6667" fill="white" transform="translate(40.1978 65.1602) rotate(-180)"/>
</clipPath>
<clipPath id="clip2">
<rect width="10.1111" height="59.5432" fill="white" transform="translate(19.9751 59.543) rotate(-180)"/>
</clipPath>
</defs>
</svg>
