<svg width="13" height="68" viewBox="0 0 13 68" fill="none" xmlns="http://www.w3.org/2000/svg">
<g opacity="0.42">
<path d="M12.5639 0.421875L0.431641 0.421875L0.431641 67.5742H12.5639L12.5639 0.421875Z" fill="#FFC96B"/>
<path d="M12.5641 68H0.431867C0.191941 68 0 67.8086 0 67.5781L0 0.421875C0 0.191406 0.19594 0 0.431867 0L12.5641 0C12.8041 0 12.996 0.191406 12.996 0.421875L12.996 67.5742C13 67.8086 12.8041 68 12.5641 68ZM0.867733 67.1523H12.1323L12.1323 0.847656L0.867733 0.847656L0.867733 67.1523Z" fill="#3B3066"/>
<path d="M12.564 4.76563L7.21361 4.76563C6.97368 4.76563 6.78174 4.57422 6.78174 4.34375C6.78174 4.10938 6.97768 3.92188 7.21361 3.92188L12.564 3.92187C12.8039 3.92187 12.9958 4.11328 12.9958 4.34375C12.9998 4.57813 12.8039 4.76563 12.564 4.76563Z" fill="#3B3066"/>
<path d="M12.5636 6.88281L9.88841 6.88281C9.64848 6.88281 9.45654 6.69141 9.45654 6.46094C9.45654 6.22656 9.65248 6.03906 9.88841 6.03906L12.5636 6.03906C12.8035 6.03906 12.9955 6.23047 12.9955 6.46094C12.9995 6.69531 12.8035 6.88281 12.5636 6.88281Z" fill="#3B3066"/>
<path d="M12.5636 9.00391H9.88841C9.64848 9.00391 9.45654 8.8125 9.45654 8.58203C9.45654 8.34766 9.65248 8.16016 9.88841 8.16016H12.5636C12.8035 8.16016 12.9955 8.35156 12.9955 8.58203C12.9995 8.8125 12.8035 9.00391 12.5636 9.00391Z" fill="#3B3066"/>
<path d="M12.5636 11.1211H9.88841C9.64848 11.1211 9.45654 10.9297 9.45654 10.6992C9.45654 10.4648 9.65248 10.2773 9.88841 10.2773H12.5636C12.8035 10.2773 12.9955 10.4688 12.9955 10.6992C12.9995 10.9297 12.8035 11.1211 12.5636 11.1211Z" fill="#3B3066"/>
<path d="M12.564 13.2383H7.21361C6.97368 13.2383 6.78174 13.0469 6.78174 12.8164C6.78174 12.582 6.97768 12.3945 7.21361 12.3945L12.564 12.3945C12.8039 12.3945 12.9958 12.5859 12.9958 12.8164C12.9998 13.0508 12.8039 13.2383 12.564 13.2383Z" fill="#3B3066"/>
<path d="M12.5636 15.3594H9.88841C9.64848 15.3594 9.45654 15.168 9.45654 14.9375C9.45654 14.7031 9.65248 14.5156 9.88841 14.5156H12.5636C12.8035 14.5156 12.9955 14.707 12.9955 14.9375C12.9995 15.168 12.8035 15.3594 12.5636 15.3594Z" fill="#3B3066"/>
<path d="M12.5636 17.4766H9.88841C9.64848 17.4766 9.45654 17.2852 9.45654 17.0547C9.45654 16.8203 9.65248 16.6328 9.88841 16.6328H12.5636C12.8035 16.6328 12.9955 16.8242 12.9955 17.0547C12.9995 17.2852 12.8035 17.4766 12.5636 17.4766Z" fill="#3B3066"/>
<path d="M12.5636 19.5938H9.88841C9.64848 19.5938 9.45654 19.4023 9.45654 19.1719C9.45654 18.9414 9.65248 18.75 9.88841 18.75H12.5636C12.8035 18.75 12.9955 18.9414 12.9955 19.1719C12.9955 19.4023 12.8035 19.5938 12.5636 19.5938Z" fill="#3B3066"/>
<path d="M12.564 21.7109H7.21361C6.97368 21.7109 6.78174 21.5195 6.78174 21.2891C6.78174 21.0547 6.97768 20.8672 7.21361 20.8672H12.564C12.8039 20.8672 12.9958 21.0586 12.9958 21.2891C12.9998 21.5234 12.8039 21.7109 12.564 21.7109Z" fill="#3B3066"/>
<path d="M12.5636 23.832H9.88841C9.64848 23.832 9.45654 23.6406 9.45654 23.4102C9.45654 23.1758 9.65248 22.9883 9.88841 22.9883H12.5636C12.8035 22.9883 12.9955 23.1797 12.9955 23.4102C12.9995 23.6406 12.8035 23.832 12.5636 23.832Z" fill="#3B3066"/>
<path d="M12.5636 25.9492H9.88841C9.64848 25.9492 9.45654 25.7578 9.45654 25.5273C9.45654 25.293 9.65248 25.1055 9.88841 25.1055H12.5636C12.8035 25.1055 12.9955 25.2969 12.9955 25.5273C12.9995 25.7617 12.8035 25.9492 12.5636 25.9492Z" fill="#3B3066"/>
<path d="M12.5636 28.0664H9.88841C9.64848 28.0664 9.45654 27.875 9.45654 27.6445C9.45654 27.4102 9.65248 27.2227 9.88841 27.2227H12.5636C12.8035 27.2227 12.9955 27.4141 12.9955 27.6445C12.9995 27.8789 12.8035 28.0664 12.5636 28.0664Z" fill="#3B3066"/>
<path d="M12.564 30.1875H7.21361C6.97368 30.1875 6.78174 29.9961 6.78174 29.7656C6.78174 29.5312 6.97768 29.3438 7.21361 29.3438H12.564C12.8039 29.3438 12.9958 29.5352 12.9958 29.7656C12.9998 29.9961 12.8039 30.1875 12.564 30.1875Z" fill="#3B3066"/>
<path d="M12.5636 32.3047H9.88841C9.64848 32.3047 9.45654 32.1133 9.45654 31.8828C9.45654 31.6484 9.65248 31.4609 9.88841 31.4609H12.5636C12.8035 31.4609 12.9955 31.6523 12.9955 31.8828C12.9995 32.1133 12.8035 32.3047 12.5636 32.3047Z" fill="#3B3066"/>
<path d="M12.5636 34.4219H9.88841C9.64848 34.4219 9.45654 34.2305 9.45654 34C9.45654 33.7656 9.65248 33.5781 9.88841 33.5781H12.5636C12.8035 33.5781 12.9955 33.7695 12.9955 34C12.9995 34.2344 12.8035 34.4219 12.5636 34.4219Z" fill="#3B3066"/>
<path d="M12.5636 36.543H9.88841C9.64848 36.543 9.45654 36.3516 9.45654 36.1211C9.45654 35.8867 9.65248 35.6992 9.88841 35.6992H12.5636C12.8035 35.6992 12.9955 35.8906 12.9955 36.1211C12.9995 36.3516 12.8035 36.543 12.5636 36.543Z" fill="#3B3066"/>
<path d="M12.564 38.6602H7.21361C6.97368 38.6602 6.78174 38.4687 6.78174 38.2383C6.78174 38.0078 6.97768 37.8164 7.21361 37.8164H12.564C12.8039 37.8164 12.9958 38.0078 12.9958 38.2383C12.9958 38.4687 12.8039 38.6602 12.564 38.6602Z" fill="#3B3066"/>
<path d="M12.5636 40.7774H9.88841C9.64848 40.7774 9.45654 40.5859 9.45654 40.3555C9.45654 40.1211 9.65248 39.9336 9.88841 39.9336H12.5636C12.8035 39.9336 12.9955 40.125 12.9955 40.3555C12.9995 40.5899 12.8035 40.7774 12.5636 40.7774Z" fill="#3B3066"/>
<path d="M12.5636 42.8945H9.88841C9.64848 42.8945 9.45654 42.7031 9.45654 42.4727C9.45654 42.2383 9.65248 42.0508 9.88841 42.0508H12.5636C12.8035 42.0508 12.9955 42.2422 12.9955 42.4727C12.9995 42.707 12.8035 42.8945 12.5636 42.8945Z" fill="#3B3066"/>
<path d="M12.5636 45.0156H9.88841C9.64848 45.0156 9.45654 44.8242 9.45654 44.5937C9.45654 44.3594 9.65248 44.1719 9.88841 44.1719H12.5636C12.8035 44.1719 12.9955 44.3633 12.9955 44.5937C12.9995 44.8242 12.8035 45.0156 12.5636 45.0156Z" fill="#3B3066"/>
<path d="M12.564 47.1328H7.21361C6.97368 47.1328 6.78174 46.9414 6.78174 46.7109C6.78174 46.4766 6.97768 46.2891 7.21361 46.2891H12.564C12.8039 46.2891 12.9958 46.4805 12.9958 46.7109C12.9998 46.9414 12.8039 47.1328 12.564 47.1328Z" fill="#3B3066"/>
<path d="M12.5636 49.25H9.88841C9.64848 49.25 9.45654 49.0586 9.45654 48.8281C9.45654 48.5938 9.65248 48.4062 9.88841 48.4062H12.5636C12.8035 48.4062 12.9955 48.5977 12.9955 48.8281C12.9995 49.0625 12.8035 49.25 12.5636 49.25Z" fill="#3B3066"/>
<path d="M12.5636 51.3711H9.88841C9.64848 51.3711 9.45654 51.1797 9.45654 50.9492C9.45654 50.7148 9.65248 50.5273 9.88841 50.5273H12.5636C12.8035 50.5273 12.9955 50.7187 12.9955 50.9492C12.9995 51.1797 12.8035 51.3711 12.5636 51.3711Z" fill="#3B3066"/>
<path d="M12.5636 53.4883H9.88841C9.64848 53.4883 9.45654 53.2969 9.45654 53.0664C9.45654 52.832 9.65248 52.6445 9.88841 52.6445H12.5636C12.8035 52.6445 12.9955 52.8359 12.9955 53.0664C12.9995 53.2969 12.8035 53.4883 12.5636 53.4883Z" fill="#3B3066"/>
<path d="M12.564 55.6055H7.21361C6.97368 55.6055 6.78174 55.4141 6.78174 55.1836C6.78174 54.9492 6.97768 54.7617 7.21361 54.7617H12.564C12.8039 54.7617 12.9958 54.9531 12.9958 55.1836C12.9998 55.418 12.8039 55.6055 12.564 55.6055Z" fill="#3B3066"/>
<path d="M12.5636 57.7227H9.88841C9.64848 57.7227 9.45654 57.5313 9.45654 57.3008C9.45654 57.0703 9.65248 56.8789 9.88841 56.8789H12.5636C12.8035 56.8789 12.9955 57.0703 12.9955 57.3008C12.9955 57.5313 12.8035 57.7227 12.5636 57.7227Z" fill="#3B3066"/>
<path d="M12.5636 59.8438H9.88841C9.64848 59.8438 9.45654 59.6523 9.45654 59.4219C9.45654 59.1914 9.65248 59 9.88841 59H12.5636C12.8035 59 12.9955 59.1914 12.9955 59.4219C12.9955 59.6523 12.8035 59.8438 12.5636 59.8438Z" fill="#3B3066"/>
<path d="M12.5636 61.9609H9.88841C9.64848 61.9609 9.45654 61.7695 9.45654 61.5391C9.45654 61.3047 9.65248 61.1172 9.88841 61.1172H12.5636C12.8035 61.1172 12.9955 61.3086 12.9955 61.5391C12.9995 61.7734 12.8035 61.9609 12.5636 61.9609Z" fill="#3B3066"/>
<path d="M12.564 64.0781H7.21361C6.97368 64.0781 6.78174 63.8867 6.78174 63.6562C6.78174 63.4258 6.97768 63.2344 7.21361 63.2344H12.564C12.8039 63.2344 12.9958 63.4258 12.9958 63.6562C12.9958 63.8867 12.8039 64.0781 12.564 64.0781Z" fill="#3B3066"/>
<path d="M3.35521 64.0352C3.11528 64.0352 2.92334 63.8438 2.92334 63.6133L2.92334 4.34375C2.92334 4.10937 3.11928 3.92188 3.35521 3.92188C3.59513 3.92188 3.78707 4.11328 3.78707 4.34375L3.78707 63.6133C3.78707 63.8438 3.59513 64.0352 3.35521 64.0352Z" fill="white"/>
</g>
</svg>
